# AST/ASF file generated using VICON BodyLanguage
# -----------------------------------------------
:version 1.10
:name VICON
:units
  mass 1.0
  length 0.45
  angle deg
:documentation
   .ast/.asf automatically generated from VICON data using
   VICON BodyBuilder and BodyLanguage model FoxedUp or BRILLIANT.MOD
:root
   order TX TY TZ RX RY RZ
   axis XYZ
   position 0 0 0  
   orientation 0 0 0 
:bonedata
  begin
     id 1 
     name lhipjoint
     direction 0.611823 -0.767273 0.19226 
     length 2.47422 
     axis 0 0 0  XYZ
  end
  begin
     id 2 
     name lfemur
     direction 0.34202 -0.939693 0  
     length 7.40835  
     axis 0 0 20  XYZ
    dof rx ry rz
    limits (-160.0 20.0)
           (-70.0 70.0)
           (-60.0 70.0)
  end
  begin
     id 3 
     name ltibia
     direction 0.34202 -0.939693 0   
     length 8.03679   
     axis 0 0 20   XYZ
    dof rx
    limits (-10.0 170.0)
  end
  begin
     id 4 
     name lfoot
     direction 0.0883598 -0.242766 0.966052   
     length 2.06694   
     axis -90 7.62852e-016 20   XYZ
    dof rx rz
    limits (-45.0 90.0)
           (-70.0 20.0)
  end
  begin
     id 5 
     name ltoes
     direction 1.53617e-011 -4.21699e-011 1   
     length 1.03711   
     axis -90 7.62852e-016 20   XYZ
    dof rx
    limits (-90.0 20.0)
  end
  begin
     id 6 
     name rhipjoint
     direction -0.590066 -0.783143 0.196236   
     length 2.42408  
     axis 0 0 0  XYZ 
  end
  begin
     id 7 
     name rfemur
     direction -0.34202 -0.939693 0   
     length 7.88987   
     axis 0 0 -20   XYZ
    dof rx ry rz
    limits (-160.0 20.0)
           (-70.0 70.0)
           (-70.0 60.0)
  end
  begin
     id 8 
     name rtibia
     direction -0.34202 -0.939693 0   
     length 7.87584   
     axis 0 0 -20   XYZ
    dof rx
    limits (-10.0 170.0)
 end
 begin
     id 9 
     name rfoot
     direction -0.130476 -0.358481 0.924374   
     length 2.21745  
     axis -90 -7.62852e-016 -20   XYZ
    dof rx rz
    limits (-45.0 90.0)
           (-20.0 70.0)
  end
  begin
     id 10 
     name rtoes
     direction 8.20695e-005 8.89091e-005 1   
     length 1.09536   
     axis -90 -7.62852e-016 -20   XYZ
    dof rx
    limits (-90.0 20.0)
  end
  begin
     id 11 
     name lowerback
     direction 0.00981224 0.999875 -0.0124197   
     length 1.94808   
     axis 0 0 0   XYZ
    dof rx ry rz
    limits (-20.0 45.0)
           (-30.0 30.0)
           (-30.0 30.0)
  end
  begin
     id 12 
     name upperback
     direction 0.038911 0.999194 0.00981686   
     length 1.94415   
     axis 0 0 0   XYZ
    dof rx ry rz
    limits (-20.0 45.0)
           (-30.0 30.0)
           (-30.0 30.0)
  end
  begin
     id 13 
     name thorax
     direction 0.0330692 0.999334 0.0154389   
     length 1.94117   
     axis 0 0 0   XYZ
    dof rx ry rz
    limits (-20.0 45.0)
           (-30.0 30.0)
           (-30.0 30.0)
  end
  begin
     id 14 
     name lowerneck
     direction -0.0374305 0.99415 0.10132   
     length 1.87291   
     axis 0 0 0   XYZ
    dof rx ry rz
    limits (-20.0 45.0)
           (-30.0 30.0)
           (-30.0 30.0)
  end
  begin
     id 15 
     name upperneck
     direction 0.0120692 0.985979 -0.166431   
     length 1.89248   
     axis 0 0 0   XYZ
    dof rx ry rz
    limits (-20.0 45.0)
           (-30.0 30.0)
           (-30.0 30.0)
  end
  begin
     id 16
     name head
     direction 0.00629908 0.997708 -0.06737  
     length 1.90559  
     axis 0 0 0   XYZ
    dof rx ry rz
    limits (-20.0 45.0)
           (-30.0 30.0)
           (-30.0 30.0)
  end
  begin
     id 17 
     name lclavicle
     direction 0.961536 0.27308 -0.0295863  
     length 3.52757  
     axis 0 0 0   XYZ
    dof ry rz
    limits (-20.0 10.0)
           (0.0 20.0)
  end
  begin
     id 18 
     name lhumerus
     direction 1 -4.48969e-011 2.61153e-029   
     length 5.14845   
     axis 180 -30 -90   XYZ
    dof rx ry rz
    limits (-60.0 90.0)
           (-90.0 90.0)
           (-90.0 90.0)
  end
  begin
     id 19
     name lradius
     direction 1 -4.4896e-011 -3.37549e-027   
     length 3.43674   
     axis 180 -30 -90   XYZ
    dof rx
    limits (-10.0 170.0)
  end
  begin
     id 20
     name lwrist
     direction 1 -4.48969e-011 2.56952e-028   
     length 1.71837   
     axis -5.12785e-016 90 90   XYZ
    dof ry
    limits (-180.0 0.0)
 end
  begin
     id 21 
     name lhand
     direction 1 -4.49094e-011 5.13905e-028   
     length 0.588709   
     axis -3.27915e-016 90 90   XYZ
    dof rx rz
    limits (-90.0 90.0)
           (-45.0 45.0)
  end
  begin
     id 22 
     name lfingers
     direction 1 -4.48821e-011 1.02781e-027   
     length 0.474633   
     axis -6.5583e-016 90 90   XYZ
    dof rx
    limits (0.0 90.0)
  end
  begin
     id 23
     name lthumb
     direction 0.707107 -6.34922e-011 0.707107   
     length 0.68148   
     axis -90 45 2.85299e-015   XYZ
    dof rx rz
    limits (-45.0 45.0)
           (-45.0 45.0)
  end
  begin
     id 24 
     name rclavicle
     direction -0.940964 0.333844 -0.0559866   
     length 3.55948  
     axis 0 0 0   XYZ 
    dof ry rz
    limits (-10.0 20.0)
           (-20.0 0.0)
  end
  begin
     id 25 
     name rhumerus
     direction -1 -4.48973e-011 3.15259e-027  
     length 5.42185   
     axis 180 30 90   XYZ
    dof rx ry rz
    limits (-90.0 60.0)
           (-90.0 90.0)
           (-90.0 90.0)
  end
  begin
     id 26 
     name rradius
     direction -1 -4.48954e-011 -2.56271e-027   
     length 3.51317   
     axis 180 30 90   XYZ
    dof rx
    limits (-10.0 170.0)
  end
  begin
     id 27 
     name rwrist
     direction -1 -4.48943e-011 2.56952e-028   
     length 1.75658   
     axis -5.12785e-016 -90 -90   XYZ
    dof ry
    limits (-180.0 0.0)
  end
  begin
     id 28
     name rhand
     direction -1 -4.4912e-011 5.13905e-028   
     length 0.663187   
     axis -3.27915e-016 -90 -90   XYZ
    dof rx rz
    limits (-90.0 90.0)
           (-45.0 45.0)
  end
  begin
     id 29
     name rfingers
     direction -1 -4.48914e-011 1.02781e-027   
     length 0.534679   
     axis -6.5583e-016 -90 -90   XYZ
    dof rx
    limits (0.0 90.0)
  end
  begin
     id 30
     name rthumb
     direction -0.707107 -6.35033e-011 0.707107   
     length 0.767695   
     axis -90 -45 -2.85299e-015   XYZ
    dof rx rz
    limits (-45.0 45.0)
           (-45.0 45.0)
  end
:hierarchy
  begin
    root lhipjoint rhipjoint lowerback
    lhipjoint lfemur
    lfemur ltibia
    ltibia lfoot
    lfoot ltoes
    rhipjoint rfemur
    rfemur rtibia
    rtibia rfoot
    rfoot rtoes
    lowerback upperback
    upperback thorax
    thorax lowerneck lclavicle rclavicle
    lowerneck upperneck
    upperneck head
    lclavicle lhumerus
    lhumerus lradius
    lradius lwrist
    lwrist lhand lthumb
    lhand lfingers
    rclavicle rhumerus
    rhumerus rradius
    rradius rwrist
    rwrist rhand rthumb
    rhand rfingers
  end

#!OML:ASF F:\VICON\USERDATA\INSTALL\Justin_a\Justin_a.ASF
:FULLY-SPECIFIED
:DEGREES
313
root 2.36705 18.0697 0.72868 0.323097 45.8803 -5.64161
lowerback 0.284679 0.69853 0.438028
upperback 2.59801 0.88303 4.56916
thorax 2.44795 0.417152 4.48864
lowerneck -12.7098 -0.82859 -4.0668
upperneck 31.5662 1.6933 -3.90642
head 12.6277 -0.0466468 -0.504313
rclavicle 3.79679e-014 -4.77083e-014
rhumerus -26.9966 -7.41548 -79.5786
rradius 31.1557
rwrist -1.03502
rhand -25.8023 13.3723
rfingers 7.12502
rthumb 0.736652 -16.6062
lclavicle 3.79679e-014 -4.77083e-014
lhumerus -31.8832 5.74926 87.9867
lradius 34.3727
lwrist 3.04498
lhand -17.9298 23.8103
lfingers 7.12502
lthumb 8.33809 53.6257
rfemur -18.4485 4.44239 30.3571
rtibia 33.8442
rfoot -19.2602 -8.50548
rtoes -5.72836
lfemur -31.3613 2.02548 -14.7578
ltibia 64.8434
lfoot -7.22595 -4.29742
ltoes 4.09397
314
root 2.4629 18.0473 0.815452 0.158094 45.7377 -5.80763
lowerback 0.211771 0.796925 0.626198
upperback 2.61079 1.00998 4.55856
thorax 2.49593 0.48456 4.37461
lowerneck -12.638 -0.874497 -4.15171
upperneck 31.5692 1.63485 -3.86598
head 12.6133 -0.075444 -0.482097
rclavicle 3.89618e-014 9.54166e-015
rhumerus -26.6634 -7.16422 -79.6708
rradius 31.5873
rwrist -1.1744
rhand -25.8245 13.2359
rfingers 7.12502
rthumb 0.715253 -16.7427
lclavicle 3.89618e-014 9.54166e-015
lhumerus -32.27 5.90232 87.896
lradius 34.3884
lwrist 3.00968
lhand -17.8787 24.0782
lfingers 7.12502
lthumb 8.38741 53.8917
rfemur -18.0177 4.50465 30.5035
rtibia 34.1699
rfoot -20.7311 -8.13945
rtoes -1.59756
lfemur -32.0332 2.19073 -14.6347
ltibia 63.866
lfoot -8.81873 -3.99728
ltoes -1.06037
315
root 2.56141 18.0327 0.890216 0.33741 45.4166 -5.68803
lowerback 0.258548 0.948756 0.818159
upperback 2.47857 1.21764 4.40246
thorax 2.32474 0.595562 4.10246
lowerneck -12.4639 -0.868525 -4.00902
upperneck 31.539 1.61335 -3.92023
head 12.5638 -0.070727 -0.529573
rclavicle 5.68524e-014 -8.74653e-015
rhumerus -26.4289 -6.7611 -79.8389
rradius 31.9585
rwrist -1.53012
rhand -25.7511 13.2004
rfingers 7.12502
rthumb 0.786186 -16.7779
lclavicle 5.68524e-014 -8.74653e-015
lhumerus -32.7496 6.36056 87.6121
lradius 34.2342
lwrist 2.74389
lhand -17.8518 23.7788
lfingers 7.12502
lthumb 8.41333 53.5912
rfemur -17.7528 4.53441 30.3765
rtibia 34.405
rfoot -20.6091 -7.59792
rtoes -0.883966
lfemur -32.7893 2.3065 -14.7801
ltibia 62.7325
lfoot -9.25391 -3.43048
ltoes -0.715136
316
root 2.65326 18.0208 0.978534 0.331613 45.2636 -5.77578
lowerback 0.145802 1.04334 0.802267
upperback 2.4597 1.34077 4.40786
thorax 2.36028 0.656566 4.12132
lowerneck -12.3926 -0.867527 -3.88262
upperneck 31.4732 1.60994 -4.03247
head 12.5227 -0.0687269 -0.593846
rclavicle -4.18442e-014 -1.98785e-014
rhumerus -26.009 -6.4698 -79.9165
rradius 32.2713
rwrist -1.34313
rhand -25.3868 12.8866
rfingers 7.12502
rthumb 1.13801 -17.0901
lclavicle -4.18442e-014 -1.98785e-014
lhumerus -33.1188 6.63297 87.4474
lradius 34.0632
lwrist 2.68831
lhand -17.8159 23.3011
lfingers 7.12502
lthumb 8.44804 53.1122
rfemur -17.3998 4.72238 30.4766
rtibia 34.5531
rfoot -20.9386 -7.85229
rtoes -1.63583
lfemur -33.4233 2.40108 -14.6666
ltibia 61.4599
lfoot -9.70687 -3.1706
ltoes 0.338145
317
root 2.74614 18.0054 1.06559 -0.0294519 45.272 -6.34703
lowerback 0.00292417 1.0617 1.19615
upperback 2.45444 1.35565 4.48987
thorax 2.44163 0.671671 3.9881
lowerneck -12.3904 -0.875889 -3.85796
upperneck 31.4859 1.6145 -4.09568
head 12.5287 -0.071572 -0.621724
rclavicle -2.69353e-014 2.22639e-014
rhumerus -25.5773 -6.12858 -79.9952
rradius 32.6117
rwrist -1.07204
rhand -24.9048 12.3353
rfingers 7.12502
rthumb 1.6035 -17.6384
lclavicle -2.69353e-014 2.22639e-014
lhumerus -33.4972 6.75454 87.3367
lradius 33.904
lwrist 2.77141
lhand -17.8643 22.5527
lfingers 7.12502
lthumb 8.40131 52.3657
rfemur -17.0306 4.80107 30.9531
rtibia 34.6372
rfoot -21.3978 -8.09296
rtoes -1.88959
lfemur -34.0448 2.47727 -14.1777
ltibia 60.084
lfoot -10.1864 -2.94426
ltoes 0.0375282
